<?xml version="1.0" standalone="no"?>
<!DOCTYPE svg PUBLIC "-//W3C//DTD SVG 20010904//EN"
 "http://www.w3.org/TR/2001/REC-SVG-20010904/DTD/svg10.dtd">
<svg version="1.0" xmlns="http://www.w3.org/2000/svg"
 width="185.000000pt" height="175.000000pt" viewBox="0 0 185.000000 175.000000"
 preserveAspectRatio="xMidYMid meet">
<metadata>
Created by potrace 1.15, written by Peter Selinger 2001-2017
</metadata>
<g transform="translate(0.000000,175.000000) scale(0.100000,-0.100000)"
fill="#000000" stroke="none">
<path d="M475 1396 c-139 -44 -219 -145 -219 -276 0 -108 33 -165 199 -340 44
-47 89 -104 100 -125 27 -56 26 -145 -1 -181 -47 -64 -110 -87 -194 -72 -112
20 -186 118 -209 278 -5 36 -10 45 -26 45 -17 0 -25 -22 -60 -175 -23 -96 -44
-187 -48 -202 -9 -36 11 -37 70 -6 l42 22 146 -23 c158 -26 231 -25 321 5 73
23 141 79 178 144 27 49 31 64 31 135 0 114 -27 164 -170 313 -126 133 -145
161 -151 236 -9 93 57 160 153 153 109 -8 173 -85 208 -249 3 -16 12 -28 20
-28 15 0 16 3 65 200 17 69 33 133 36 143 8 25 -38 23 -61 -3 -23 -26 -69 -26
-177 0 -94 22 -194 25 -253 6z"/>
<path d="M1325 1390 c-153 -49 -238 -206 -190 -351 24 -72 57 -119 171 -241
52 -56 102 -114 109 -129 72 -137 2 -272 -140 -272 -110 1 -199 72 -235 191
-11 35 -20 74 -20 86 0 29 -22 58 -37 48 -9 -5 -103 -370 -103 -398 0 -10 33
-2 71 18 39 20 47 21 118 10 219 -34 240 -36 312 -25 99 16 190 62 234 120 67
88 81 206 36 308 -10 22 -71 97 -135 165 -133 141 -166 195 -166 269 0 55 28
99 81 126 109 57 254 -55 275 -214 5 -39 11 -51 24 -51 14 0 25 30 59 165 22
90 41 171 41 180 0 20 -34 19 -51 -1 -28 -33 -56 -35 -169 -9 -129 30 -203 31
-285 5z m306 -19 c91 -22 121 -19 148 13 13 15 41 22 41 10 0 -3 -15 -67 -34
-142 -19 -75 -37 -149 -40 -164 -10 -44 -20 -33 -33 33 -24 125 -106 210 -210
216 -68 5 -111 -16 -143 -69 -26 -42 -26 -119 -1 -175 11 -23 71 -95 136 -163
141 -146 168 -197 168 -305 0 -152 -97 -254 -273 -285 -69 -12 -142 -8 -268
16 -100 19 -141 18 -180 -6 -18 -11 -35 -20 -39 -20 -8 0 2 55 43 227 35 148
48 178 58 131 3 -13 10 -46 16 -74 46 -207 265 -301 392 -167 37 39 51 80 43
131 -11 74 -31 105 -149 235 -141 156 -171 211 -170 312 0 80 16 119 73 178
92 97 218 117 422 68z"/>
</g>
</svg>
